<svg width="100" height="50" viewBox="0 0 259 68" fill="none" xmlns="http://www.w3.org/2000/svg">
<path d="M43.2873 25.9751V19.6364H73.1523V25.9751H62.0195V56H54.4201V25.9751H43.2873ZM78.0707 56V19.6364H92.4173C95.1635 19.6364 97.5072 20.1276 99.4485 21.1101C101.402 22.0807 102.887 23.4598 103.905 25.2472C104.935 27.0227 105.45 29.112 105.45 31.5149C105.45 33.9297 104.929 36.0071 103.887 37.7472C102.846 39.4754 101.337 40.8011 99.3597 41.7244C97.3948 42.6477 95.0155 43.1094 92.2219 43.1094H82.6161V36.9304H90.979C92.4469 36.9304 93.6661 36.7292 94.6367 36.3267C95.6074 35.9242 96.3294 35.3205 96.8029 34.5156C97.2882 33.7107 97.5309 32.7105 97.5309 31.5149C97.5309 30.3075 97.2882 29.2895 96.8029 28.4609C96.3294 27.6323 95.6014 27.005 94.619 26.5788C93.6483 26.1409 92.4232 25.9219 90.9435 25.9219H85.7589V56H78.0707ZM97.7085 39.4517L106.746 56H98.2589L89.4165 39.4517H97.7085ZM110.883 56V19.6364H135.386V25.9751H118.571V34.6399H134.125V40.9787H118.571V49.6612H135.457V56H110.883ZM141.498 56V19.6364H149.187V49.6612H164.776V56H141.498ZM177.556 19.6364V56H169.868V19.6364H177.556ZM214.297 19.6364V56H207.656L191.836 33.1129H191.569V56H183.881V19.6364H190.628L206.324 42.5057H206.644V19.6364H214.297Z" fill="#3086A3"/>
<circle cx="173" cy="7" r="7" fill="#F9AE2B"/>
</svg>
